REM GENRE E
PERFORMER "Elton John"
TITLE "Goodbye Yellow Brick Road (Deluxe Edition)"
REM REPLAYGAIN_ALBUM_GAIN -7.60 dB
REM REPLAYGAIN_ALBUM_PEAK 1.000000
FILE "Elton John - Goodbye Yellow Brick Road - Disc 1.wav" WAVE
  TRACK 01 AUDIO
    TITLE "Funeral For A Friend /Love Lies Bleeding"
    PERFORMER "Elton John"
    REM REPLAYGAIN_TRACK_GAIN -8.43 dB
    REM REPLAYGAIN_TRACK_PEAK 0.999084
    INDEX 01 00:00:00
  TRACK 02 AUDIO
    TITLE "Candle In The Wind"
    PERFORMER "Elton John"
    REM REPLAYGAIN_TRACK_GAIN -6.36 dB
    REM REPLAYGAIN_TRACK_PEAK 0.984070
    INDEX 01 11:08:47
  TRACK 03 AUDIO
    TITLE "Bennie And The Jets "
    PERFORMER "Elton John"
    REM REPLAYGAIN_TRACK_GAIN -7.32 dB
    REM REPLAYGAIN_TRACK_PEAK 0.998505
    INDEX 01 14:58:48
  TRACK 04 AUDIO
    TITLE "Goodbye Yellow Brick Road"
    PERFORMER "Elton John"
    REM REPLAYGAIN_TRACK_GAIN -7.05 dB
    REM REPLAYGAIN_TRACK_PEAK 0.997162
    INDEX 01 20:23:11
  TRACK 05 AUDIO
    TITLE "This Song Has No Title"
    PERFORMER "Elton John"
    REM REPLAYGAIN_TRACK_GAIN -5.72 dB
    REM REPLAYGAIN_TRACK_PEAK 0.976166
    INDEX 01 23:36:65
  TRACK 06 AUDIO
    TITLE "Grey Seal "
    PERFORMER "Elton John"
    REM REPLAYGAIN_TRACK_GAIN -7.77 dB
    REM REPLAYGAIN_TRACK_PEAK 0.997131
    INDEX 01 26:01:16
  TRACK 07 AUDIO
    TITLE "Jamaica Jerk-Off"
    PERFORMER "Elton John"
    REM REPLAYGAIN_TRACK_GAIN -7.92 dB
    REM REPLAYGAIN_TRACK_PEAK 0.998749
    INDEX 01 30:02:62
  TRACK 08 AUDIO
    TITLE "I've Seen That Movie Too"
    PERFORMER "Elton John"
    REM REPLAYGAIN_TRACK_GAIN -5.27 dB
    REM REPLAYGAIN_TRACK_PEAK 0.997284
    INDEX 01 33:42:51
FILE "Elton John - Goodbye Yellow Brick Road - Disc 2.wav" WAVE
  TRACK 09 AUDIO
    TITLE "Sweet Painted Lady"
    PERFORMER "Elton John"
    REM REPLAYGAIN_TRACK_GAIN -3.81 dB
    REM REPLAYGAIN_TRACK_PEAK 0.996063
    INDEX 01 00:00:00
  TRACK 10 AUDIO
    TITLE "The Ballad Of Danny Bailey (1909-1934)"
    PERFORMER "Elton John"
    REM REPLAYGAIN_TRACK_GAIN -6.70 dB
    REM REPLAYGAIN_TRACK_PEAK 0.997284
    INDEX 01 03:55:37
  TRACK 11 AUDIO
    TITLE "Dirty Little Girl"
    PERFORMER "Elton John"
    REM REPLAYGAIN_TRACK_GAIN -8.10 dB
    REM REPLAYGAIN_TRACK_PEAK 0.999054
    INDEX 01 08:20:29
  TRACK 12 AUDIO
    TITLE "All The Girls Love Alice"
    PERFORMER "Elton John"
    REM REPLAYGAIN_TRACK_GAIN -6.62 dB
    REM REPLAYGAIN_TRACK_PEAK 0.998169
    INDEX 01 13:22:32
  TRACK 13 AUDIO
    TITLE "Your Sister Can't Twist (But She Can Rock 'n' Roll)"
    PERFORMER "Elton John"
    REM REPLAYGAIN_TRACK_GAIN -8.98 dB
    REM REPLAYGAIN_TRACK_PEAK 0.999969
    INDEX 01 18:32:71
  TRACK 14 AUDIO
    TITLE "Saturday Night's Alright For Fighting"
    PERFORMER "Elton John"
    REM REPLAYGAIN_TRACK_GAIN -9.12 dB
    REM REPLAYGAIN_TRACK_PEAK 0.999237
    INDEX 01 21:14:68
  TRACK 15 AUDIO
    TITLE "Roy Rogers"
    PERFORMER "Elton John"
    REM REPLAYGAIN_TRACK_GAIN -7.07 dB
    REM REPLAYGAIN_TRACK_PEAK 0.997467
    INDEX 01 26:11:60
  TRACK 16 AUDIO
    TITLE "Social Disease"
    PERFORMER "Elton John"
    REM REPLAYGAIN_TRACK_GAIN -8.69 dB
    REM REPLAYGAIN_TRACK_PEAK 0.997131
    INDEX 01 30:20:60
  TRACK 17 AUDIO
    TITLE "Harmony"
    PERFORMER "Elton John"
    REM REPLAYGAIN_TRACK_GAIN -6.87 dB
    REM REPLAYGAIN_TRACK_PEAK 0.998535
    INDEX 01 34:04:53
  TRACK 18 AUDIO
    TITLE "Whenever You're Ready (We'll Go Steady)"
    PERFORMER "Elton John"
    REM REPLAYGAIN_TRACK_GAIN -9.46 dB
    REM REPLAYGAIN_TRACK_PEAK 0.999573
    INDEX 01 36:54:12
  TRACK 19 AUDIO
    TITLE "Jack Rabbit"
    PERFORMER "Elton John"
    REM REPLAYGAIN_TRACK_GAIN -5.98 dB
    REM REPLAYGAIN_TRACK_PEAK 0.996735
    INDEX 01 39:46:35
  TRACK 20 AUDIO
    TITLE "Screw You (Young Man's Blues)"
    PERFORMER "Elton John"
    REM REPLAYGAIN_TRACK_GAIN -9.67 dB
    REM REPLAYGAIN_TRACK_PEAK 1.000000
    INDEX 01 41:37:33
  TRACK 21 AUDIO
    TITLE "Candle In The Wind (Acoustic)"
    PERFORMER "Elton John"
    REM REPLAYGAIN_TRACK_GAIN -4.99 dB
    REM REPLAYGAIN_TRACK_PEAK 0.853668
    INDEX 01 46:20:01
